# xmcd CD database file
#
# Track frame offsets:
#	150
#	10725
#	24375
#	35175
#	52951
#	70651
#
# Disc length: 1164 seconds
#
# Revision: 0
# Processed by: cddbd v1.5.2PL0 Copyright (c) Steve Scherf et al.
# Submitted via: CDex 1.70beta2
#
DISCID=43048a06
DTITLE=Sadie Shaw - Little Maggie Mae
DYEAR=2008
DGENRE=Country
TTITLE0=Little Maggie Mae
TTITLE1=Song For A Winter's Night
TTITLE2=Redbird
TTITLE3=Louise
TTITLE4=Cheap Whiskey
TTITLE5=Orphan Train
EXTD=YEAR: 2008
EXTT0=
EXTT1=
EXTT2=
EXTT3=
EXTT4=
EXTT5=
PLAYORDER=
